<svg width="67" height="67" viewBox="0 0 67 67" fill="none" xmlns="http://www.w3.org/2000/svg">
<path d="M29.494 5.79271C30.7449 5.19531 32.1137 4.88525 33.5 4.88525C34.8863 4.88525 36.2551 5.19531 37.506 5.79271C38.606 6.32033 39.6138 7.18017 41.0235 8.38338L41.2441 8.56763C42.5841 9.71221 43.8655 10.2538 45.6549 10.3962L45.9397 10.4185C47.7878 10.5665 49.1082 10.6697 50.2584 11.0773C51.5656 11.5392 52.7529 12.2875 53.7335 13.2676C54.7141 14.2477 55.463 15.4347 55.9255 16.7416C56.3303 17.8918 56.4335 19.2123 56.5815 21.0603L56.6038 21.3451C56.7462 23.1345 57.2906 24.4159 58.4324 25.7559L58.6166 25.9737C59.8198 27.3862 60.6825 28.394 61.2073 29.494C61.8047 30.7449 62.1148 32.1137 62.1148 33.5C62.1148 34.8863 61.8047 36.2551 61.2073 37.506C60.6797 38.606 59.8198 39.6138 58.6166 41.0235L58.4324 41.2441C57.2655 42.612 56.7434 43.899 56.6038 45.6549L56.5815 45.9397C56.4335 47.7878 56.3303 49.1082 55.9227 50.2584C55.4608 51.5656 54.7125 52.7529 53.7324 53.7335C52.7523 54.7141 51.5654 55.463 50.2584 55.9255C49.1082 56.3303 47.7878 56.4335 45.9397 56.5815L45.6549 56.6038C43.8655 56.7462 42.5841 57.2906 41.2441 58.4324L41.0235 58.6166C39.6138 59.8198 38.606 60.6825 37.506 61.2073C36.2551 61.8047 34.8863 62.1148 33.5 62.1148C32.1137 62.1148 30.7449 61.8047 29.494 61.2073C28.394 60.6797 27.3863 59.8198 25.9765 58.6166L25.7559 58.4324C24.5388 57.3352 22.9815 56.6896 21.3451 56.6038L21.0603 56.5815C19.2123 56.4335 17.8918 56.3303 16.7416 55.9227C15.4344 55.4608 14.2471 54.7125 13.2665 53.7324C12.2859 52.7523 11.537 51.5654 11.0745 50.2584C10.6697 49.1082 10.5665 47.7878 10.4185 45.9397L10.3962 45.6549C10.3104 44.0185 9.6648 42.4612 8.56763 41.2441L8.38338 41.0235C7.18017 39.6138 6.31754 38.606 5.79271 37.506C5.19531 36.2551 4.88525 34.8863 4.88525 33.5C4.88525 32.1137 5.19531 30.7449 5.79271 29.494C6.32033 28.394 7.18017 27.3863 8.38338 25.9765L8.56763 25.7559C9.6648 24.5388 10.3104 22.9815 10.3962 21.3451L10.4185 21.0603C10.5665 19.2123 10.6697 17.8918 11.0773 16.7416C11.5392 15.4344 12.2875 14.2471 13.2676 13.2665C14.2477 12.2859 15.4347 11.537 16.7416 11.0745C17.8918 10.6697 19.2123 10.5665 21.0603 10.4185L21.3451 10.3962C22.9815 10.3104 24.5388 9.6648 25.7559 8.56763L25.9737 8.38338C27.3862 7.18017 28.394 6.31754 29.494 5.79271ZM37.1459 22.8945C37.2236 22.6284 37.2477 22.3495 37.2168 22.074C37.1859 21.7985 37.1006 21.5319 36.9659 21.2896C36.8311 21.0474 36.6496 20.8343 36.4318 20.6627C36.2141 20.4912 35.9644 20.3646 35.6973 20.2903C35.4302 20.216 35.1511 20.1955 34.876 20.2299C34.6009 20.2643 34.3354 20.3531 34.0949 20.4909C33.8544 20.6288 33.6437 20.813 33.4749 21.033C33.3062 21.2529 33.1828 21.5042 33.112 21.7722C32.0428 25.6191 29.8736 29.226 27.9111 31.9171C26.8875 33.3203 25.7829 34.6626 24.603 35.9371L24.402 36.1465L24.3517 36.1967L24.3405 36.2079C24.0479 36.5009 23.8488 36.8741 23.7682 37.2802C23.6877 37.6864 23.7294 38.1073 23.888 38.4898C24.0467 38.8723 24.3152 39.1991 24.6596 39.429C25.004 39.6588 25.4088 39.7814 25.8229 39.7812H34.1979V44.6667C34.1979 45.222 34.4185 45.7545 34.8112 46.1472C35.2038 46.5398 35.7364 46.7604 36.2917 46.7604C36.847 46.7604 37.3795 46.5398 37.7722 46.1472C38.1648 45.7545 38.3854 45.222 38.3854 44.6667V39.7812H39.7812C40.3365 39.7812 40.8691 39.5607 41.2618 39.168C41.6544 38.7753 41.875 38.2428 41.875 37.6875C41.875 37.1322 41.6544 36.5997 41.2618 36.207C40.8691 35.8143 40.3365 35.5938 39.7812 35.5938H38.3854V33.5C38.3854 32.9447 38.1648 32.4122 37.7722 32.0195C37.3795 31.6268 36.847 31.4062 36.2917 31.4062C35.7364 31.4062 35.2038 31.6268 34.8112 32.0195C34.4185 32.4122 34.1979 32.9447 34.1979 33.5V35.5938H30.3845C30.6804 35.2159 30.9838 34.813 31.2946 34.385C33.4023 31.4956 35.8869 27.4225 37.1459 22.8945Z" fill="black"/>
</svg>
