<svg width="67" height="67" viewBox="0 0 67 67" fill="none" xmlns="http://www.w3.org/2000/svg">
<path d="M29.494 5.79271C30.7449 5.19531 32.1137 4.88525 33.5 4.88525C34.8863 4.88525 36.2551 5.19531 37.506 5.79271C38.606 6.32033 39.6138 7.18017 41.0235 8.38338L41.2441 8.56763C42.5841 9.71221 43.8655 10.2538 45.6549 10.3962L45.9397 10.4185C47.7878 10.5665 49.1082 10.6697 50.2584 11.0773C51.5656 11.5392 52.7529 12.2875 53.7335 13.2676C54.7141 14.2477 55.463 15.4347 55.9255 16.7416C56.3303 17.8918 56.4335 19.2123 56.5815 21.0603L56.6038 21.3451C56.7462 23.1345 57.2906 24.4159 58.4324 25.7559L58.6166 25.9737C59.8198 27.3862 60.6825 28.394 61.2073 29.494C61.8047 30.7449 62.1148 32.1137 62.1148 33.5C62.1148 34.8863 61.8047 36.2551 61.2073 37.506C60.6797 38.606 59.8198 39.6138 58.6166 41.0235L58.4324 41.2441C57.2655 42.612 56.7434 43.899 56.6038 45.6549L56.5815 45.9397C56.4335 47.7878 56.3303 49.1082 55.9227 50.2584C55.4608 51.5656 54.7125 52.7529 53.7324 53.7335C52.7523 54.7141 51.5654 55.463 50.2584 55.9255C49.1082 56.3303 47.7878 56.4335 45.9397 56.5815L45.6549 56.6038C43.8655 56.7462 42.5841 57.2906 41.2441 58.4324L41.0235 58.6166C39.6138 59.8198 38.606 60.6825 37.506 61.2073C36.2551 61.8047 34.8863 62.1148 33.5 62.1148C32.1137 62.1148 30.7449 61.8047 29.494 61.2073C28.394 60.6797 27.3863 59.8198 25.9765 58.6166L25.7559 58.4324C24.5388 57.3352 22.9815 56.6896 21.3451 56.6038L21.0603 56.5815C19.2123 56.4335 17.8918 56.3303 16.7416 55.9227C15.4344 55.4608 14.2471 54.7125 13.2665 53.7324C12.2859 52.7523 11.537 51.5654 11.0745 50.2584C10.6697 49.1082 10.5665 47.7878 10.4185 45.9397L10.3962 45.6549C10.3104 44.0185 9.6648 42.4612 8.56763 41.2441L8.38338 41.0235C7.18017 39.6138 6.31754 38.606 5.79271 37.506C5.19531 36.2551 4.88525 34.8863 4.88525 33.5C4.88525 32.1137 5.19531 30.7449 5.79271 29.494C6.32033 28.394 7.18017 27.3863 8.38338 25.9765L8.56763 25.7559C9.6648 24.5388 10.3104 22.9815 10.3962 21.3451L10.4185 21.0603C10.5665 19.2123 10.6697 17.8918 11.0773 16.7416C11.5392 15.4344 12.2875 14.2471 13.2676 13.2665C14.2477 12.2859 15.4347 11.537 16.7416 11.0745C17.8918 10.6697 19.2123 10.5665 21.0603 10.4185L21.3451 10.3962C22.9815 10.3104 24.5388 9.6648 25.7559 8.56763L25.9737 8.38338C27.3862 7.18017 28.394 6.31754 29.494 5.79271ZM37.6875 22.3333C37.6877 21.9471 37.581 21.5683 37.3793 21.2389C37.1776 20.9095 36.8886 20.6423 36.5445 20.4669C36.2003 20.2915 35.8144 20.2147 35.4293 20.2451C35.0442 20.2754 34.6751 20.4117 34.3626 20.6388L26.6855 26.2221C26.2361 26.5486 25.9348 27.0403 25.8479 27.589C25.761 28.1376 25.8956 28.6984 26.2221 29.1478C26.5486 29.5972 27.0403 29.8985 27.589 29.9854C28.1376 30.0723 28.6984 29.9377 29.1478 29.6112L33.5028 26.4455V44.6667C33.5028 45.222 33.7234 45.7545 34.116 46.1472C34.5087 46.5398 35.0412 46.7604 35.5965 46.7604C36.1518 46.7604 36.6844 46.5398 37.077 46.1472C37.4697 45.7545 37.6903 45.222 37.6903 44.6667L37.6875 22.3333Z" fill="black"/>
</svg>
