<svg width="67" height="67" viewBox="0 0 67 67" fill="none" xmlns="http://www.w3.org/2000/svg">
<path d="M29.494 5.79271C30.7449 5.19531 32.1137 4.88525 33.5 4.88525C34.8863 4.88525 36.2551 5.19531 37.506 5.79271C38.606 6.32033 39.6138 7.18017 41.0235 8.38338L41.2441 8.56763C42.5841 9.71221 43.8655 10.2538 45.6549 10.3962L45.9397 10.4185C47.7878 10.5665 49.1082 10.6697 50.2584 11.0773C51.5656 11.5392 52.7529 12.2875 53.7335 13.2676C54.7141 14.2477 55.463 15.4347 55.9255 16.7416C56.3303 17.8918 56.4335 19.2123 56.5815 21.0603L56.6038 21.3451C56.7462 23.1345 57.2906 24.4159 58.4324 25.7559L58.6166 25.9737C59.8198 27.3862 60.6825 28.394 61.2073 29.494C61.8047 30.7449 62.1148 32.1137 62.1148 33.5C62.1148 34.8863 61.8047 36.2551 61.2073 37.506C60.6797 38.606 59.8198 39.6138 58.6166 41.0235L58.4324 41.2441C57.2655 42.612 56.7434 43.899 56.6038 45.6549L56.5815 45.9397C56.4335 47.7878 56.3303 49.1082 55.9227 50.2584C55.4608 51.5656 54.7125 52.7529 53.7324 53.7335C52.7523 54.7141 51.5654 55.463 50.2584 55.9255C49.1082 56.3303 47.7878 56.4335 45.9397 56.5815L45.6549 56.6038C43.8655 56.7462 42.5841 57.2906 41.2441 58.4324L41.0235 58.6166C39.6138 59.8198 38.606 60.6825 37.506 61.2073C36.2551 61.8047 34.8863 62.1148 33.5 62.1148C32.1137 62.1148 30.7449 61.8047 29.494 61.2073C28.394 60.6797 27.3863 59.8198 25.9765 58.6166L25.7559 58.4324C24.5388 57.3352 22.9815 56.6896 21.3451 56.6038L21.0603 56.5815C19.2123 56.4335 17.8918 56.3303 16.7416 55.9227C15.4344 55.4608 14.2471 54.7125 13.2665 53.7324C12.2859 52.7523 11.537 51.5654 11.0745 50.2584C10.6697 49.1082 10.5665 47.7878 10.4185 45.9397L10.3962 45.6549C10.3104 44.0185 9.6648 42.4612 8.56763 41.2441L8.38338 41.0235C7.18017 39.6138 6.31754 38.606 5.79271 37.506C5.19531 36.2551 4.88525 34.8863 4.88525 33.5C4.88525 32.1137 5.19531 30.7449 5.79271 29.494C6.32033 28.394 7.18017 27.3863 8.38338 25.9765L8.56763 25.7559C9.6648 24.5388 10.3104 22.9815 10.3962 21.3451L10.4185 21.0603C10.5665 19.2123 10.6697 17.8918 11.0773 16.7416C11.5392 15.4344 12.2875 14.2471 13.2676 13.2665C14.2477 12.2859 15.4347 11.537 16.7416 11.0745C17.8918 10.6697 19.2123 10.5665 21.0603 10.4185L21.3451 10.3962C22.9815 10.3104 24.5388 9.6648 25.7559 8.56763L25.9737 8.38338C27.3862 7.18017 28.394 6.31754 29.494 5.79271ZM42.5729 27.9027C42.5729 25.2897 41.3083 23.2909 39.5105 22.0179C37.774 20.7867 35.5798 20.2396 33.5 20.2396C31.4202 20.2396 29.226 20.7867 27.4895 22.0179C25.6945 23.2909 24.4271 25.2897 24.4271 27.8999C24.4271 28.4552 24.6477 28.9878 25.0403 29.3804C25.433 29.7731 25.9655 29.9937 26.5208 29.9937C27.0761 29.9937 27.6087 29.7731 28.0013 29.3804C28.394 28.9878 28.6146 28.4552 28.6146 27.8999C28.6146 26.8 29.0948 26.0155 29.9127 25.4321C30.7949 24.8067 32.0902 24.4271 33.5 24.4271C34.9098 24.4271 36.2051 24.8067 37.0873 25.4321C37.9025 26.01 38.3798 26.7888 38.3854 27.8804L38.3798 27.9557C38.3715 28.0395 38.3575 28.1791 38.3212 28.3494C38.2299 28.7886 38.0637 29.2088 37.8299 29.5917C37.3665 30.337 36.3168 31.4062 33.5 31.4062C32.9447 31.4062 32.4122 31.6268 32.0195 32.0195C31.6268 32.4122 31.4062 32.9447 31.4062 33.5C31.4062 34.0553 31.6268 34.5879 32.0195 34.9805C32.4122 35.3732 32.9447 35.5938 33.5 35.5938C36.3196 35.5938 37.3665 36.663 37.8299 37.4083C38.1456 37.9278 38.3358 38.5138 38.3854 39.1196C38.3798 40.2084 37.9025 40.99 37.0873 41.5679C36.2051 42.1933 34.9098 42.5729 33.5 42.5729C32.0902 42.5729 30.7949 42.1933 29.9127 41.5679C29.0948 40.9845 28.6146 40.2 28.6146 39.1001C28.6146 38.5448 28.394 38.0122 28.0013 37.6196C27.6087 37.2269 27.0761 37.0063 26.5208 37.0063C25.9655 37.0063 25.433 37.2269 25.0403 37.6196C24.6477 38.0122 24.4271 38.5448 24.4271 39.1001C24.4271 41.7103 25.6945 43.7063 27.4895 44.9821C29.226 46.2133 31.4202 46.7604 33.5 46.7604C35.5798 46.7604 37.774 46.2133 39.5105 44.9821C41.3055 43.7091 42.5729 41.7103 42.5729 39.1001V39.0945C42.5162 37.7134 42.1068 36.3698 41.3837 35.1917C40.9889 34.5596 40.5025 33.9895 39.9404 33.5C40.5294 32.9863 41.0068 32.4113 41.3837 31.8083C42.1068 30.6302 42.5162 29.2866 42.5729 27.9055V27.9027Z" fill="black"/>
</svg>
