<svg width="67" height="67" viewBox="0 0 67 67" fill="none" xmlns="http://www.w3.org/2000/svg">
<path d="M29.494 5.79271C30.7449 5.19531 32.1137 4.88525 33.5 4.88525C34.8863 4.88525 36.2551 5.19531 37.506 5.79271C38.606 6.32033 39.6138 7.18017 41.0235 8.38338L41.2441 8.56763C42.5841 9.71221 43.8655 10.2538 45.6549 10.3962L45.9397 10.4185C47.7878 10.5665 49.1082 10.6697 50.2584 11.0773C51.5656 11.5392 52.7529 12.2875 53.7335 13.2676C54.7141 14.2477 55.463 15.4347 55.9255 16.7416C56.3303 17.8918 56.4335 19.2123 56.5815 21.0603L56.6038 21.3451C56.7462 23.1345 57.2906 24.4159 58.4324 25.7559L58.6166 25.9737C59.8198 27.3862 60.6825 28.394 61.2073 29.494C61.8047 30.7449 62.1148 32.1137 62.1148 33.5C62.1148 34.8863 61.8047 36.2551 61.2073 37.506C60.6797 38.606 59.8198 39.6138 58.6166 41.0235L58.4324 41.2441C57.2655 42.612 56.7434 43.899 56.6038 45.6549L56.5815 45.9397C56.4335 47.7878 56.3303 49.1082 55.9227 50.2584C55.4608 51.5656 54.7125 52.7529 53.7324 53.7335C52.7523 54.7141 51.5654 55.463 50.2584 55.9255C49.1082 56.3303 47.7878 56.4335 45.9397 56.5815L45.6549 56.6038C43.8655 56.7462 42.5841 57.2906 41.2441 58.4324L41.0235 58.6166C39.6138 59.8198 38.606 60.6825 37.506 61.2073C36.2551 61.8047 34.8863 62.1148 33.5 62.1148C32.1137 62.1148 30.7449 61.8047 29.494 61.2073C28.394 60.6797 27.3863 59.8198 25.9765 58.6166L25.7559 58.4324C24.5388 57.3352 22.9815 56.6896 21.3451 56.6038L21.0603 56.5815C19.2123 56.4335 17.8918 56.3303 16.7416 55.9227C15.4344 55.4608 14.2471 54.7125 13.2665 53.7324C12.2859 52.7523 11.537 51.5654 11.0745 50.2584C10.6697 49.1082 10.5665 47.7878 10.4185 45.9397L10.3962 45.6549C10.3104 44.0185 9.6648 42.4612 8.56763 41.2441L8.38338 41.0235C7.18017 39.6138 6.31754 38.606 5.79271 37.506C5.19531 36.2551 4.88525 34.8863 4.88525 33.5C4.88525 32.1137 5.19531 30.7449 5.79271 29.494C6.32033 28.394 7.18017 27.3863 8.38338 25.9765L8.56763 25.7559C9.6648 24.5388 10.3104 22.9815 10.3962 21.3451L10.4185 21.0603C10.5665 19.2123 10.6697 17.8918 11.0773 16.7416C11.5392 15.4344 12.2875 14.2471 13.2676 13.2665C14.2477 12.2859 15.4347 11.537 16.7416 11.0745C17.8918 10.6697 19.2123 10.5665 21.0603 10.4185L21.3451 10.3962C22.9815 10.3104 24.5388 9.6648 25.7559 8.56763L25.9737 8.38338C27.3862 7.18017 28.394 6.31754 29.494 5.79271ZM28.6146 28.8575C28.6146 27.2411 29.1925 26.1886 29.935 25.5214C30.7139 24.8207 31.8055 24.4271 32.964 24.4271C34.1225 24.4271 35.2141 24.8179 35.993 25.5214C36.7327 26.1886 37.3106 27.2411 37.3106 28.8575C37.3106 31.2639 35.7361 33.8015 33.151 36.4061C31.2192 38.3547 29.0082 40.0716 27.0233 41.6098C26.3906 42.1011 25.7857 42.5757 25.2087 43.0335C24.8704 43.305 24.6247 43.6748 24.5057 44.0919C24.3866 44.509 24.4 44.9528 24.544 45.362C24.6881 45.7711 24.9557 46.1254 25.3098 46.3759C25.6639 46.6265 26.0871 46.7608 26.5208 46.7604H40.4792C41.0345 46.7604 41.567 46.5398 41.9597 46.1472C42.3523 45.7545 42.5729 45.222 42.5729 44.6667C42.5729 44.1114 42.3523 43.5788 41.9597 43.1862C41.567 42.7935 41.0345 42.5729 40.4792 42.5729H32.5508C33.7596 41.5763 34.9963 40.4931 36.1242 39.3541C38.8656 36.5904 41.4981 33.0142 41.4981 28.8575C41.4981 26.1216 40.4652 23.9162 38.793 22.4087C37.1543 20.9347 35.027 20.2396 32.964 20.2396C30.901 20.2396 28.7709 20.9347 27.1322 22.4087C25.4572 23.9162 24.4271 26.1216 24.4271 28.8575C24.4271 29.4128 24.6477 29.9453 25.0403 30.338C25.433 30.7306 25.9655 30.9512 26.5208 30.9512C27.0761 30.9512 27.6087 30.7306 28.0013 30.338C28.394 29.9453 28.6146 29.4128 28.6146 28.8575Z" fill="black"/>
</svg>
