<svg xmlns="http://www.w3.org/2000/svg" xmlns:xlink="http://www.w3.org/1999/xlink"><symbol id="face" viewBox="0 0 79 79"><g fill="none">
<circle cx="39.5" cy="39.5" r="39.5" fill="#D9D9D9"/>
</g></symbol><symbol id="four" viewBox="0 0 67 67"><g fill="none">
<path d="M29.494 5.79271C30.7449 5.19531 32.1137 4.88525 33.5 4.88525C34.8863 4.88525 36.2551 5.19531 37.506 5.79271C38.606 6.32033 39.6138 7.18017 41.0235 8.38338L41.2441 8.56763C42.5841 9.71221 43.8655 10.2538 45.6549 10.3962L45.9397 10.4185C47.7878 10.5665 49.1082 10.6697 50.2584 11.0773C51.5656 11.5392 52.7529 12.2875 53.7335 13.2676C54.7141 14.2477 55.463 15.4347 55.9255 16.7416C56.3303 17.8918 56.4335 19.2123 56.5815 21.0603L56.6038 21.3451C56.7462 23.1345 57.2906 24.4159 58.4324 25.7559L58.6166 25.9737C59.8198 27.3862 60.6825 28.394 61.2073 29.494C61.8047 30.7449 62.1148 32.1137 62.1148 33.5C62.1148 34.8863 61.8047 36.2551 61.2073 37.506C60.6797 38.606 59.8198 39.6138 58.6166 41.0235L58.4324 41.2441C57.2655 42.612 56.7434 43.899 56.6038 45.6549L56.5815 45.9397C56.4335 47.7878 56.3303 49.1082 55.9227 50.2584C55.4608 51.5656 54.7125 52.7529 53.7324 53.7335C52.7523 54.7141 51.5654 55.463 50.2584 55.9255C49.1082 56.3303 47.7878 56.4335 45.9397 56.5815L45.6549 56.6038C43.8655 56.7462 42.5841 57.2906 41.2441 58.4324L41.0235 58.6166C39.6138 59.8198 38.606 60.6825 37.506 61.2073C36.2551 61.8047 34.8863 62.1148 33.5 62.1148C32.1137 62.1148 30.7449 61.8047 29.494 61.2073C28.394 60.6797 27.3863 59.8198 25.9765 58.6166L25.7559 58.4324C24.5388 57.3352 22.9815 56.6896 21.3451 56.6038L21.0603 56.5815C19.2123 56.4335 17.8918 56.3303 16.7416 55.9227C15.4344 55.4608 14.2471 54.7125 13.2665 53.7324C12.2859 52.7523 11.537 51.5654 11.0745 50.2584C10.6697 49.1082 10.5665 47.7878 10.4185 45.9397L10.3962 45.6549C10.3104 44.0185 9.6648 42.4612 8.56763 41.2441L8.38338 41.0235C7.18017 39.6138 6.31754 38.606 5.79271 37.506C5.19531 36.2551 4.88525 34.8863 4.88525 33.5C4.88525 32.1137 5.19531 30.7449 5.79271 29.494C6.32033 28.394 7.18017 27.3863 8.38338 25.9765L8.56763 25.7559C9.6648 24.5388 10.3104 22.9815 10.3962 21.3451L10.4185 21.0603C10.5665 19.2123 10.6697 17.8918 11.0773 16.7416C11.5392 15.4344 12.2875 14.2471 13.2676 13.2665C14.2477 12.2859 15.4347 11.537 16.7416 11.0745C17.8918 10.6697 19.2123 10.5665 21.0603 10.4185L21.3451 10.3962C22.9815 10.3104 24.5388 9.6648 25.7559 8.56763L25.9737 8.38338C27.3862 7.18017 28.394 6.31754 29.494 5.79271ZM37.1459 22.8945C37.2236 22.6284 37.2477 22.3495 37.2168 22.074C37.1859 21.7985 37.1006 21.5319 36.9659 21.2896C36.8311 21.0474 36.6496 20.8343 36.4318 20.6627C36.2141 20.4912 35.9644 20.3646 35.6973 20.2903C35.4302 20.216 35.1511 20.1955 34.876 20.2299C34.6009 20.2643 34.3354 20.3531 34.0949 20.4909C33.8544 20.6288 33.6437 20.813 33.4749 21.033C33.3062 21.2529 33.1828 21.5042 33.112 21.7722C32.0428 25.6191 29.8736 29.226 27.9111 31.9171C26.8875 33.3203 25.7829 34.6626 24.603 35.9371L24.402 36.1465L24.3517 36.1967L24.3405 36.2079C24.0479 36.5009 23.8488 36.8741 23.7682 37.2802C23.6877 37.6864 23.7294 38.1073 23.888 38.4898C24.0467 38.8723 24.3152 39.1991 24.6596 39.429C25.004 39.6588 25.4088 39.7814 25.8229 39.7812H34.1979V44.6667C34.1979 45.222 34.4185 45.7545 34.8112 46.1472C35.2038 46.5398 35.7364 46.7604 36.2917 46.7604C36.847 46.7604 37.3795 46.5398 37.7722 46.1472C38.1648 45.7545 38.3854 45.222 38.3854 44.6667V39.7812H39.7812C40.3365 39.7812 40.8691 39.5607 41.2618 39.168C41.6544 38.7753 41.875 38.2428 41.875 37.6875C41.875 37.1322 41.6544 36.5997 41.2618 36.207C40.8691 35.8143 40.3365 35.5938 39.7812 35.5938H38.3854V33.5C38.3854 32.9447 38.1648 32.4122 37.7722 32.0195C37.3795 31.6268 36.847 31.4062 36.2917 31.4062C35.7364 31.4062 35.2038 31.6268 34.8112 32.0195C34.4185 32.4122 34.1979 32.9447 34.1979 33.5V35.5938H30.3845C30.6804 35.2159 30.9838 34.813 31.2946 34.385C33.4023 31.4956 35.8869 27.4225 37.1459 22.8945Z" fill="black"/>
</g></symbol><symbol id="line" viewBox="0 0 745 349"><g fill="none">
<path d="M744.291 0.7566C2.63717 68.6212 561.151 320.11 1.00018 348.5" stroke="black"/>
</g></symbol><symbol id="one" viewBox="0 0 67 67"><g fill="none">
<path d="M29.494 5.79271C30.7449 5.19531 32.1137 4.88525 33.5 4.88525C34.8863 4.88525 36.2551 5.19531 37.506 5.79271C38.606 6.32033 39.6138 7.18017 41.0235 8.38338L41.2441 8.56763C42.5841 9.71221 43.8655 10.2538 45.6549 10.3962L45.9397 10.4185C47.7878 10.5665 49.1082 10.6697 50.2584 11.0773C51.5656 11.5392 52.7529 12.2875 53.7335 13.2676C54.7141 14.2477 55.463 15.4347 55.9255 16.7416C56.3303 17.8918 56.4335 19.2123 56.5815 21.0603L56.6038 21.3451C56.7462 23.1345 57.2906 24.4159 58.4324 25.7559L58.6166 25.9737C59.8198 27.3862 60.6825 28.394 61.2073 29.494C61.8047 30.7449 62.1148 32.1137 62.1148 33.5C62.1148 34.8863 61.8047 36.2551 61.2073 37.506C60.6797 38.606 59.8198 39.6138 58.6166 41.0235L58.4324 41.2441C57.2655 42.612 56.7434 43.899 56.6038 45.6549L56.5815 45.9397C56.4335 47.7878 56.3303 49.1082 55.9227 50.2584C55.4608 51.5656 54.7125 52.7529 53.7324 53.7335C52.7523 54.7141 51.5654 55.463 50.2584 55.9255C49.1082 56.3303 47.7878 56.4335 45.9397 56.5815L45.6549 56.6038C43.8655 56.7462 42.5841 57.2906 41.2441 58.4324L41.0235 58.6166C39.6138 59.8198 38.606 60.6825 37.506 61.2073C36.2551 61.8047 34.8863 62.1148 33.5 62.1148C32.1137 62.1148 30.7449 61.8047 29.494 61.2073C28.394 60.6797 27.3863 59.8198 25.9765 58.6166L25.7559 58.4324C24.5388 57.3352 22.9815 56.6896 21.3451 56.6038L21.0603 56.5815C19.2123 56.4335 17.8918 56.3303 16.7416 55.9227C15.4344 55.4608 14.2471 54.7125 13.2665 53.7324C12.2859 52.7523 11.537 51.5654 11.0745 50.2584C10.6697 49.1082 10.5665 47.7878 10.4185 45.9397L10.3962 45.6549C10.3104 44.0185 9.6648 42.4612 8.56763 41.2441L8.38338 41.0235C7.18017 39.6138 6.31754 38.606 5.79271 37.506C5.19531 36.2551 4.88525 34.8863 4.88525 33.5C4.88525 32.1137 5.19531 30.7449 5.79271 29.494C6.32033 28.394 7.18017 27.3863 8.38338 25.9765L8.56763 25.7559C9.6648 24.5388 10.3104 22.9815 10.3962 21.3451L10.4185 21.0603C10.5665 19.2123 10.6697 17.8918 11.0773 16.7416C11.5392 15.4344 12.2875 14.2471 13.2676 13.2665C14.2477 12.2859 15.4347 11.537 16.7416 11.0745C17.8918 10.6697 19.2123 10.5665 21.0603 10.4185L21.3451 10.3962C22.9815 10.3104 24.5388 9.6648 25.7559 8.56763L25.9737 8.38338C27.3862 7.18017 28.394 6.31754 29.494 5.79271ZM37.6875 22.3333C37.6877 21.9471 37.581 21.5683 37.3793 21.2389C37.1776 20.9095 36.8886 20.6423 36.5445 20.4669C36.2003 20.2915 35.8144 20.2147 35.4293 20.2451C35.0442 20.2754 34.6751 20.4117 34.3626 20.6388L26.6855 26.2221C26.2361 26.5486 25.9348 27.0403 25.8479 27.589C25.761 28.1376 25.8956 28.6984 26.2221 29.1478C26.5486 29.5972 27.0403 29.8985 27.589 29.9854C28.1376 30.0723 28.6984 29.9377 29.1478 29.6112L33.5028 26.4455V44.6667C33.5028 45.222 33.7234 45.7545 34.116 46.1472C34.5087 46.5398 35.0412 46.7604 35.5965 46.7604C36.1518 46.7604 36.6844 46.5398 37.077 46.1472C37.4697 45.7545 37.6903 45.222 37.6903 44.6667L37.6875 22.3333Z" fill="black"/>
</g></symbol><symbol id="pdf" viewBox="0 0 44 45"><g fill="none">
<path d="M0 5.625C0 2.52246 2.52246 0 5.625 0H19.6875V11.25C19.6875 12.8057 20.9443 14.0625 22.5 14.0625H33.75V26.7188H15.4688C12.3662 26.7188 9.84375 29.2412 9.84375 32.3438V45H5.625C2.52246 45 0 42.4775 0 39.375V5.625ZM33.75 11.25H22.5V0L33.75 11.25ZM15.4688 30.9375H18.2812C20.9971 30.9375 23.2031 33.1436 23.2031 35.8594C23.2031 38.5752 20.9971 40.7812 18.2812 40.7812H16.875V43.5938C16.875 44.3672 16.2422 45 15.4688 45C14.6953 45 14.0625 44.3672 14.0625 43.5938V32.3438C14.0625 31.5703 14.6953 30.9375 15.4688 30.9375ZM18.2812 37.9688C19.4502 37.9688 20.3906 37.0283 20.3906 35.8594C20.3906 34.6904 19.4502 33.75 18.2812 33.75H16.875V37.9688H18.2812ZM26.7188 30.9375H29.5312C31.8604 30.9375 33.75 32.8271 33.75 35.1562V40.7812C33.75 43.1104 31.8604 45 29.5312 45H26.7188C25.9453 45 25.3125 44.3672 25.3125 43.5938V32.3438C25.3125 31.5703 25.9453 30.9375 26.7188 30.9375ZM29.5312 42.1875C30.3047 42.1875 30.9375 41.5547 30.9375 40.7812V35.1562C30.9375 34.3828 30.3047 33.75 29.5312 33.75H28.125V42.1875H29.5312ZM36.5625 32.3438C36.5625 31.5703 37.1953 30.9375 37.9688 30.9375H42.1875C42.9609 30.9375 43.5938 31.5703 43.5938 32.3438C43.5938 33.1172 42.9609 33.75 42.1875 33.75H39.375V36.5625H42.1875C42.9609 36.5625 43.5938 37.1953 43.5938 37.9688C43.5938 38.7422 42.9609 39.375 42.1875 39.375H39.375V43.5938C39.375 44.3672 38.7422 45 37.9688 45C37.1953 45 36.5625 44.3672 36.5625 43.5938V32.3438Z" fill="black"/>
</g></symbol><symbol id="three" viewBox="0 0 67 67"><g fill="none">
<path d="M29.494 5.79271C30.7449 5.19531 32.1137 4.88525 33.5 4.88525C34.8863 4.88525 36.2551 5.19531 37.506 5.79271C38.606 6.32033 39.6138 7.18017 41.0235 8.38338L41.2441 8.56763C42.5841 9.71221 43.8655 10.2538 45.6549 10.3962L45.9397 10.4185C47.7878 10.5665 49.1082 10.6697 50.2584 11.0773C51.5656 11.5392 52.7529 12.2875 53.7335 13.2676C54.7141 14.2477 55.463 15.4347 55.9255 16.7416C56.3303 17.8918 56.4335 19.2123 56.5815 21.0603L56.6038 21.3451C56.7462 23.1345 57.2906 24.4159 58.4324 25.7559L58.6166 25.9737C59.8198 27.3862 60.6825 28.394 61.2073 29.494C61.8047 30.7449 62.1148 32.1137 62.1148 33.5C62.1148 34.8863 61.8047 36.2551 61.2073 37.506C60.6797 38.606 59.8198 39.6138 58.6166 41.0235L58.4324 41.2441C57.2655 42.612 56.7434 43.899 56.6038 45.6549L56.5815 45.9397C56.4335 47.7878 56.3303 49.1082 55.9227 50.2584C55.4608 51.5656 54.7125 52.7529 53.7324 53.7335C52.7523 54.7141 51.5654 55.463 50.2584 55.9255C49.1082 56.3303 47.7878 56.4335 45.9397 56.5815L45.6549 56.6038C43.8655 56.7462 42.5841 57.2906 41.2441 58.4324L41.0235 58.6166C39.6138 59.8198 38.606 60.6825 37.506 61.2073C36.2551 61.8047 34.8863 62.1148 33.5 62.1148C32.1137 62.1148 30.7449 61.8047 29.494 61.2073C28.394 60.6797 27.3863 59.8198 25.9765 58.6166L25.7559 58.4324C24.5388 57.3352 22.9815 56.6896 21.3451 56.6038L21.0603 56.5815C19.2123 56.4335 17.8918 56.3303 16.7416 55.9227C15.4344 55.4608 14.2471 54.7125 13.2665 53.7324C12.2859 52.7523 11.537 51.5654 11.0745 50.2584C10.6697 49.1082 10.5665 47.7878 10.4185 45.9397L10.3962 45.6549C10.3104 44.0185 9.6648 42.4612 8.56763 41.2441L8.38338 41.0235C7.18017 39.6138 6.31754 38.606 5.79271 37.506C5.19531 36.2551 4.88525 34.8863 4.88525 33.5C4.88525 32.1137 5.19531 30.7449 5.79271 29.494C6.32033 28.394 7.18017 27.3863 8.38338 25.9765L8.56763 25.7559C9.6648 24.5388 10.3104 22.9815 10.3962 21.3451L10.4185 21.0603C10.5665 19.2123 10.6697 17.8918 11.0773 16.7416C11.5392 15.4344 12.2875 14.2471 13.2676 13.2665C14.2477 12.2859 15.4347 11.537 16.7416 11.0745C17.8918 10.6697 19.2123 10.5665 21.0603 10.4185L21.3451 10.3962C22.9815 10.3104 24.5388 9.6648 25.7559 8.56763L25.9737 8.38338C27.3862 7.18017 28.394 6.31754 29.494 5.79271ZM42.5729 27.9027C42.5729 25.2897 41.3083 23.2909 39.5105 22.0179C37.774 20.7867 35.5798 20.2396 33.5 20.2396C31.4202 20.2396 29.226 20.7867 27.4895 22.0179C25.6945 23.2909 24.4271 25.2897 24.4271 27.8999C24.4271 28.4552 24.6477 28.9878 25.0403 29.3804C25.433 29.7731 25.9655 29.9937 26.5208 29.9937C27.0761 29.9937 27.6087 29.7731 28.0013 29.3804C28.394 28.9878 28.6146 28.4552 28.6146 27.8999C28.6146 26.8 29.0948 26.0155 29.9127 25.4321C30.7949 24.8067 32.0902 24.4271 33.5 24.4271C34.9098 24.4271 36.2051 24.8067 37.0873 25.4321C37.9025 26.01 38.3798 26.7888 38.3854 27.8804L38.3798 27.9557C38.3715 28.0395 38.3575 28.1791 38.3212 28.3494C38.2299 28.7886 38.0637 29.2088 37.8299 29.5917C37.3665 30.337 36.3168 31.4062 33.5 31.4062C32.9447 31.4062 32.4122 31.6268 32.0195 32.0195C31.6268 32.4122 31.4062 32.9447 31.4062 33.5C31.4062 34.0553 31.6268 34.5879 32.0195 34.9805C32.4122 35.3732 32.9447 35.5938 33.5 35.5938C36.3196 35.5938 37.3665 36.663 37.8299 37.4083C38.1456 37.9278 38.3358 38.5138 38.3854 39.1196C38.3798 40.2084 37.9025 40.99 37.0873 41.5679C36.2051 42.1933 34.9098 42.5729 33.5 42.5729C32.0902 42.5729 30.7949 42.1933 29.9127 41.5679C29.0948 40.9845 28.6146 40.2 28.6146 39.1001C28.6146 38.5448 28.394 38.0122 28.0013 37.6196C27.6087 37.2269 27.0761 37.0063 26.5208 37.0063C25.9655 37.0063 25.433 37.2269 25.0403 37.6196C24.6477 38.0122 24.4271 38.5448 24.4271 39.1001C24.4271 41.7103 25.6945 43.7063 27.4895 44.9821C29.226 46.2133 31.4202 46.7604 33.5 46.7604C35.5798 46.7604 37.774 46.2133 39.5105 44.9821C41.3055 43.7091 42.5729 41.7103 42.5729 39.1001V39.0945C42.5162 37.7134 42.1068 36.3698 41.3837 35.1917C40.9889 34.5596 40.5025 33.9895 39.9404 33.5C40.5294 32.9863 41.0068 32.4113 41.3837 31.8083C42.1068 30.6302 42.5162 29.2866 42.5729 27.9055V27.9027Z" fill="black"/>
</g></symbol><symbol id="two" viewBox="0 0 67 67"><g fill="none">
<path d="M29.494 5.79271C30.7449 5.19531 32.1137 4.88525 33.5 4.88525C34.8863 4.88525 36.2551 5.19531 37.506 5.79271C38.606 6.32033 39.6138 7.18017 41.0235 8.38338L41.2441 8.56763C42.5841 9.71221 43.8655 10.2538 45.6549 10.3962L45.9397 10.4185C47.7878 10.5665 49.1082 10.6697 50.2584 11.0773C51.5656 11.5392 52.7529 12.2875 53.7335 13.2676C54.7141 14.2477 55.463 15.4347 55.9255 16.7416C56.3303 17.8918 56.4335 19.2123 56.5815 21.0603L56.6038 21.3451C56.7462 23.1345 57.2906 24.4159 58.4324 25.7559L58.6166 25.9737C59.8198 27.3862 60.6825 28.394 61.2073 29.494C61.8047 30.7449 62.1148 32.1137 62.1148 33.5C62.1148 34.8863 61.8047 36.2551 61.2073 37.506C60.6797 38.606 59.8198 39.6138 58.6166 41.0235L58.4324 41.2441C57.2655 42.612 56.7434 43.899 56.6038 45.6549L56.5815 45.9397C56.4335 47.7878 56.3303 49.1082 55.9227 50.2584C55.4608 51.5656 54.7125 52.7529 53.7324 53.7335C52.7523 54.7141 51.5654 55.463 50.2584 55.9255C49.1082 56.3303 47.7878 56.4335 45.9397 56.5815L45.6549 56.6038C43.8655 56.7462 42.5841 57.2906 41.2441 58.4324L41.0235 58.6166C39.6138 59.8198 38.606 60.6825 37.506 61.2073C36.2551 61.8047 34.8863 62.1148 33.5 62.1148C32.1137 62.1148 30.7449 61.8047 29.494 61.2073C28.394 60.6797 27.3863 59.8198 25.9765 58.6166L25.7559 58.4324C24.5388 57.3352 22.9815 56.6896 21.3451 56.6038L21.0603 56.5815C19.2123 56.4335 17.8918 56.3303 16.7416 55.9227C15.4344 55.4608 14.2471 54.7125 13.2665 53.7324C12.2859 52.7523 11.537 51.5654 11.0745 50.2584C10.6697 49.1082 10.5665 47.7878 10.4185 45.9397L10.3962 45.6549C10.3104 44.0185 9.6648 42.4612 8.56763 41.2441L8.38338 41.0235C7.18017 39.6138 6.31754 38.606 5.79271 37.506C5.19531 36.2551 4.88525 34.8863 4.88525 33.5C4.88525 32.1137 5.19531 30.7449 5.79271 29.494C6.32033 28.394 7.18017 27.3863 8.38338 25.9765L8.56763 25.7559C9.6648 24.5388 10.3104 22.9815 10.3962 21.3451L10.4185 21.0603C10.5665 19.2123 10.6697 17.8918 11.0773 16.7416C11.5392 15.4344 12.2875 14.2471 13.2676 13.2665C14.2477 12.2859 15.4347 11.537 16.7416 11.0745C17.8918 10.6697 19.2123 10.5665 21.0603 10.4185L21.3451 10.3962C22.9815 10.3104 24.5388 9.6648 25.7559 8.56763L25.9737 8.38338C27.3862 7.18017 28.394 6.31754 29.494 5.79271ZM28.6146 28.8575C28.6146 27.2411 29.1925 26.1886 29.935 25.5214C30.7139 24.8207 31.8055 24.4271 32.964 24.4271C34.1225 24.4271 35.2141 24.8179 35.993 25.5214C36.7327 26.1886 37.3106 27.2411 37.3106 28.8575C37.3106 31.2639 35.7361 33.8015 33.151 36.4061C31.2192 38.3547 29.0082 40.0716 27.0233 41.6098C26.3906 42.1011 25.7857 42.5757 25.2087 43.0335C24.8704 43.305 24.6247 43.6748 24.5057 44.0919C24.3866 44.509 24.4 44.9528 24.544 45.362C24.6881 45.7711 24.9557 46.1254 25.3098 46.3759C25.6639 46.6265 26.0871 46.7608 26.5208 46.7604H40.4792C41.0345 46.7604 41.567 46.5398 41.9597 46.1472C42.3523 45.7545 42.5729 45.222 42.5729 44.6667C42.5729 44.1114 42.3523 43.5788 41.9597 43.1862C41.567 42.7935 41.0345 42.5729 40.4792 42.5729H32.5508C33.7596 41.5763 34.9963 40.4931 36.1242 39.3541C38.8656 36.5904 41.4981 33.0142 41.4981 28.8575C41.4981 26.1216 40.4652 23.9162 38.793 22.4087C37.1543 20.9347 35.027 20.2396 32.964 20.2396C30.901 20.2396 28.7709 20.9347 27.1322 22.4087C25.4572 23.9162 24.4271 26.1216 24.4271 28.8575C24.4271 29.4128 24.6477 29.9453 25.0403 30.338C25.433 30.7306 25.9655 30.9512 26.5208 30.9512C27.0761 30.9512 27.6087 30.7306 28.0013 30.338C28.394 29.9453 28.6146 29.4128 28.6146 28.8575Z" fill="black"/>
</g></symbol><symbol id="xs" viewBox="0 0 6 12"><g fill="none">
<path d="M5.90625 0.578125L1.65625 12H0.148438L4.40625 0.578125H5.90625Z" fill="#808080"/>
</g></symbol></svg>